<?xml version="1.0" encoding="utf-8"?>
<!-- Generator: Adobe Illustrator 25.2.3, SVG Export Plug-In . SVG Version: 6.00 Build 0)  -->
<svg version="1.1" id="Capa_1" xmlns="http://www.w3.org/2000/svg" xmlns:xlink="http://www.w3.org/1999/xlink" x="0px" y="0px"
	 viewBox="0 0 35 35" style="enable-background:new 0 0 35 35;" xml:space="preserve">
<style type="text/css">
	.st0{fill:#01B2B2;}
</style>
<path class="st0" d="M25.4,4.6H10c-5,0-9.1,4.1-9.1,9.1v8.6c0.9-0.8,2.7-2.2,5.4-2.5c3.7-0.4,8.3-1.2,9.2-0.6
	c0.8,0.6,1.6,1.3,1.6,3.6c0,1.8,0.2,6.8,0.2,8.8h8.1c5,0,9.1-4.1,9.1-9.1v-8.8C34.5,8.6,30.4,4.6,25.4,4.6z M9.7,16.2
	c-1.6,1.9-4.1,2.5-5.5,1.3S3,13.8,4.7,11.9c1.6-1.9,4.1-2.5,5.5-1.3C11.5,11.8,11.3,14.3,9.7,16.2z M13.3,15.7
	c-1.4-1.2-1.3-3.6,0.2-5.5s3.9-2.4,5.3-1.3c1.4,1.2,1.3,3.6-0.2,5.5C17.1,16.3,14.7,16.8,13.3,15.7z M19.8,15.5
	c1.5-1.9,3.9-2.4,5.3-1.3c1.4,1.2,1.3,3.6-0.2,5.5c-1.5,1.9-3.9,2.4-5.3,1.3C18.2,19.8,18.2,17.4,19.8,15.5z M25.7,28.8
	c-1.5,1.9-3.9,2.4-5.3,1.3c-1.4-1.2-1.3-3.6,0.2-5.5s3.9-2.4,5.3-1.3C27.3,24.5,27.3,26.9,25.7,28.8z"/>
</svg>
